<svg width="73" height="67" fill="none" xmlns="http://www.w3.org/2000/svg"><path d="M63.53 19.763a10.195 10.195 0 00-7.873-9.4 10.266 10.266 0 00-12.112 6.72l-6.14-1.468a10.279 10.279 0 00-7.782-11.478 10.189 10.189 0 00-11.255 4.825L4.687 32.514a3.203 3.203 0 00-.335.84l-.725 3.032a15.607 15.607 0 0011.537 18.787 15.598 15.598 0 0016.051-5.778l2.565.614a15.597 15.597 0 0011.7 12.415 15.607 15.607 0 0018.79-11.537l.725-3.03c.07-.297.095-.599.08-.9L63.53 19.763zM16.613 49.11A9.368 9.368 0 019.69 37.836c.055-.23.158-.433.228-.657a9.337 9.337 0 0111.044-6.264 9.353 9.353 0 016.92 11.272l-.006.028a9.365 9.365 0 01-11.262 6.894zm30.315 7.25a9.366 9.366 0 01-6.924-11.244l.006-.027a9.353 9.353 0 0118.194 4.348 9.369 9.369 0 01-11.276 6.923z" fill="#fff"/></svg>