<svg width="26" height="26" fill="none" xmlns="http://www.w3.org/2000/svg"><path d="M19.092 25.86h-4.33l-1.986-.71-1.987.639h-4.33c-3.547 0-6.457-2.91-6.457-6.458V6.699C.002 3.15 2.912.24 6.46.24h12.632c3.548 0 6.458 2.91 6.458 6.458V19.33c.07 3.619-2.839 6.529-6.458 6.529z" fill="#282828"/><path d="M10.79 10.247v2.768H7.595v3.62h3.193v9.154h3.974v-9.084h2.98l.569-3.62h-3.478v-2.341c0-.994.497-1.987 2.058-1.987h1.561V5.563s-1.419-.212-2.838-.212c-2.91 0-4.826 1.703-4.826 4.896z" fill="#F0EEEE"/></svg>