<svg width="27" height="26" fill="none" xmlns="http://www.w3.org/2000/svg"><path d="M19.574 25.86H6.942c-3.548 0-6.458-2.91-6.458-6.458V6.699C.484 3.15 3.394.24 6.942.24h12.632c3.549 0 6.458 2.91 6.458 6.458V19.33c.071 3.619-2.838 6.529-6.458 6.529z" fill="#282828"/><path d="M17.233 8.33c-.497 0-.852.355-.852.852s.355.852.852.852c.496 0 .851-.355.851-.852a.863.863 0 00-.851-.851zM13.33 9.395a3.634 3.634 0 00-3.62 3.62 3.635 3.635 0 003.62 3.619 3.635 3.635 0 003.618-3.62c.072-1.987-1.56-3.619-3.619-3.619zm0 6.032a2.363 2.363 0 01-2.343-2.342 2.363 2.363 0 012.342-2.342 2.363 2.363 0 012.342 2.342 2.363 2.363 0 01-2.342 2.342z" fill="#F0EEEE"/><path d="M16.239 20.466h-5.89a4.452 4.452 0 01-4.471-4.471v-5.89a4.452 4.452 0 014.47-4.471h5.891a4.452 4.452 0 014.47 4.47v5.89a4.452 4.452 0 01-4.47 4.472zm-5.89-13.413a3.029 3.029 0 00-3.052 3.052v5.89a3.029 3.029 0 003.052 3.051h5.89a3.029 3.029 0 003.052-3.051v-5.89a3.029 3.029 0 00-3.052-3.052h-5.89z" fill="#F0EEEE"/></svg>