<svg width="26" height="26" fill="none" xmlns="http://www.w3.org/2000/svg"><path d="M19.541 25.86H6.909c-3.548 0-6.458-2.91-6.458-6.458V6.699C.451 3.15 3.361.24 6.91.24h12.632C23.09.24 26 3.15 26 6.698V19.33c.07 3.619-2.839 6.529-6.458 6.529z" fill="#282828"/><path d="M13.864 11.88c.355-.427.852-.71 1.348-.782.994-.141 1.987-.141 2.697.781.426.497.639 1.136.639 1.845.07 1.42.07 2.839.07 4.258 0 .355-.141.568-.567.568h-1.348c-.426 0-.568-.142-.568-.568v-3.406c0-.284-.071-.497-.142-.78-.142-.427-.426-.64-.852-.64-.425 0-.851.071-.993.497-.142.284-.284.639-.284.994-.071 1.064 0 2.2 0 3.264 0 .497-.142.639-.639.639H12.02c-.426 0-.568-.142-.568-.568v-6.245c0-.426.142-.568.568-.568h1.206c.426 0 .568.142.639.64v.07zm-3.336 2.909v3.122c0 .426-.142.568-.567.568H8.754c-.426 0-.567-.142-.567-.568v-6.174c0-.426.141-.568.567-.568h1.207c.425 0 .638.142.638.64-.07.922-.07 1.986-.07 2.98zM7.832 9.112c0-.852.71-1.562 1.49-1.562.852 0 1.49.71 1.49 1.49 0 .852-.71 1.562-1.56 1.562-.781 0-1.42-.639-1.42-1.49z" fill="#F0EEEE"/></svg>