<svg width="62" height="64" fill="none" xmlns="http://www.w3.org/2000/svg"><path d="M47.001 16.381c-1.1 7.4 3.8 11.3 9.4 11 1.9 5.9 1.2 11.5-2.3 16.6-.9 1.3-2.1 2.5-3.2 3.6-1.5 1.4-3.6 1.3-4.8 0-1.2-1.4-1.1-3.3.4-4.8 4.3-4.3 5.5-9.3 3.3-14.3-3.1-7-11.7-9.4-18-5-.2.1-.4.3-.6.4-1.8 1.3-3.8 1.1-5-.4-1.1-1.5-.8-3.5.9-4.8 4-3.1 8.6-4.5 13.7-3.8 2.1.2 4.1 1 6.2 1.5z" fill="#fff"/><path d="M16.5 54.281c-7.4-1.4-13.2-7.2-14.7-14.4-.5-2.5.4-4.2 2.5-4.6 1.9-.4 3.4.8 4 3.2 1.4 6.2 7.2 10.4 13.2 9.6 6.5-.9 11-6.1 10.8-12.6 0-.7-.1-1.3-.1-2 0-1.8 1.2-3.1 2.9-3.3 1.6-.2 3.1.9 3.5 2.5 1.6 6-2 15.2-7.4 18.4-.3.2-.9.3-1.2.1-6.2-3.3-9.6-2.6-13.5 3.1z" fill="#fff"/><path d="M13.1 6.481c4.8-5.8 13.4-8 20.3-5.4 2 .7 2.9 2.5 2.3 4.3-.6 1.8-2.4 2.6-4.4 2-6.1-1.9-11.7.1-14.6 5.1-3.6 6.1-1.3 13.8 5 17 .4.2.8.3 1.1.5 1.8.9 2.6 2.6 2 4.3-.7 1.8-2.6 2.6-4.5 1.8-4.7-1.9-8.1-5.1-10.2-9.7-.4-1-.8-2-1.1-3.1-.8-3-.8-3 1.8-4.7 4.2-2.5 5-7 2.3-12.1z" fill="#fff"/><path d="M0 11.781c0-3.6 2.7-6.5 6.3-6.5 3.6-.1 6.6 2.8 6.6 6.5 0 3.5-2.9 6.4-6.4 6.5-3.6-.1-6.4-3-6.5-6.5zm61.5 7.3c0 3.6-2.8 6.4-6.4 6.4-3.6 0-6.6-3-6.5-6.6.1-3.5 3.1-6.4 6.6-6.3 3.5 0 6.3 2.9 6.3 6.5zm-30.7 38.3c0 3.6-2.7 6.4-6.3 6.5-3.7 0-6.6-2.8-6.5-6.5 0-3.6 2.9-6.4 6.4-6.4 3.6 0 6.4 2.8 6.4 6.4z" fill="#fff"/></svg>