<svg width="64" height="64" fill="none" xmlns="http://www.w3.org/2000/svg"><path d="M27.5 28.7c.1-.3.1-.5.2-.8 0-.1.1-.1.2-.1 2.3-.4 4.6-.8 6.9-1.1.4-.1.9 0 1.4 0 0 .1-.1.3-.1.4-1.4 4.9-2.8 9.8-4.2 14.6-.1.5-.2 1-.3 1.6-.1.4.1.7.3.8.3.2.6.1.8-.1.4-.4.9-.8 1.3-1.3s.7-1 1.1-1.5c0-.1.1-.1.1-.2.2.1.5.3.8.4l-1.2 1.8c-.8 1.1-1.7 2.2-2.9 2.9-1.1.7-2.2 1-3.5.8-1.6-.3-2.6-1.6-2.3-3.2.2-1.1.5-2.2.8-3.2.9-3.1 1.8-6.2 2.7-9.2.1-.4.2-.8.2-1.2.1-.9-.6-1.4-1.3-1.4h-1zm4.3-8.7c0-1.7 1.4-3.1 3-3.2 1.8 0 3.2 1.4 3.2 3.2 0 1.7-1.4 3.1-3.1 3.1-1.7.1-3.1-1.3-3.1-3.1z" fill="#fff"/><path d="M32 0C14.3 0 0 14.3 0 32s14.3 32 32 32 32-14.3 32-32S49.7 0 32 0zm0 60C16.5 60 4 47.5 4 32S16.5 4 32 4s28 12.5 28 28-12.5 28-28 28z" fill="#fff"/></svg>