<svg width="44" height="33" fill="none" xmlns="http://www.w3.org/2000/svg"><mask id="path-1-outside-1_202_288" maskUnits="userSpaceOnUse" x="0" y="0" width="44" height="33" fill="#000"><path fill="#fff" d="M0 0h44v33H0z"/><path d="M22.002 32.7H4.741c-1.838 0-3.282-1.181-3.675-2.953C1 29.418 1 29.156 1 28.893V4.741C1 2.575 2.64 1 4.741 1h34.456c2.232 0 3.807 1.575 3.807 3.741v24.218c0 2.1-1.575 3.741-3.74 3.741H22.001zm0-1.575h16.933c1.706 0 2.56-.853 2.56-2.56V5.07c0-1.706-.854-2.56-2.56-2.56H5.069c-1.706 0-2.56.854-2.56 2.56v23.496c0 1.707.854 2.56 2.56 2.56h16.933z"/></mask><path d="M22.002 32.7H4.741c-1.838 0-3.282-1.181-3.675-2.953C1 29.418 1 29.156 1 28.893V4.741C1 2.575 2.64 1 4.741 1h34.456c2.232 0 3.807 1.575 3.807 3.741v24.218c0 2.1-1.575 3.741-3.74 3.741H22.001zm0-1.575h16.933c1.706 0 2.56-.853 2.56-2.56V5.07c0-1.706-.854-2.56-2.56-2.56H5.069c-1.706 0-2.56.854-2.56 2.56v23.496c0 1.707.854 2.56 2.56 2.56h16.933z" fill="#fff"/><path d="M1.066 29.747l-.197.039.001.004.196-.043zM39.263 32.7v.2-.2zm-17.26-.2H4.74v.4h17.262v-.4zm-17.262 0c-1.743 0-3.106-1.115-3.48-2.797l-.39.087c.413 1.862 1.937 3.11 3.87 3.11v-.4zm-3.48-2.793a3.845 3.845 0 01-.061-.814H.8c0 .263 0 .543.07.893l.392-.079zm-.061-.814V4.74H.8v24.153h.4zm0-24.152C1.2 2.688 2.749 1.2 4.741 1.2V.8C2.533.8.8 2.462.8 4.741h.4zM4.741 1.2h34.456V.8H4.741v.4zm34.456 0c2.124 0 3.607 1.488 3.607 3.541h.4C43.204 2.462 41.537.8 39.197.8v.4zm3.607 3.541v24.218h.4V4.74h-.4zm0 24.218c0 1.992-1.488 3.541-3.54 3.541v.4c2.278 0 3.94-1.733 3.94-3.941h-.4zm-3.54 3.541H22.001v.4h17.262v-.4zm-17.262-1.175h16.933v-.4H22.002v.4zm16.933 0c.884 0 1.584-.221 2.061-.699.477-.477.699-1.177.699-2.06h-.4c0 .822-.206 1.402-.582 1.777-.376.376-.956.582-1.778.582v.4zm2.76-2.76V5.068h-.4v23.497h.4zm0-23.496c0-.884-.221-1.584-.699-2.061-.477-.477-1.177-.698-2.061-.698v.4c.822 0 1.402.205 1.778.58.376.377.582.957.582 1.78h.4zm-2.76-2.76H5.069v.4h33.866v-.4zm-33.866 0c-.884 0-1.584.222-2.061.699-.477.477-.698 1.177-.698 2.061h.4c0-.822.205-1.402.58-1.778.377-.376.957-.581 1.78-.581v-.4zM2.31 5.07v23.495h.4V5.068h-.4zm0 23.496c0 .884.222 1.584.699 2.061.477.478 1.177.699 2.061.699v-.4c-.822 0-1.402-.206-1.778-.582-.376-.375-.581-.955-.581-1.778h-.4zm2.76 2.76h16.932v-.4H5.07v.4z" fill="#fff" mask="url(#path-1-outside-1_202_288)"/><path d="M5.135 9.632h33.932c.05 0 .102.003.158.007l.099.005c.09.005.19.005.28-.014a.417.417 0 00.252-.147.544.544 0 00.098-.345.544.544 0 00-.098-.344.417.417 0 00-.252-.147 1.134 1.134 0 00-.28-.015 6.19 6.19 0 00-.099.006c-.056.003-.107.007-.158.007H5.135c-.05 0-.103-.004-.159-.007l-.098-.006a1.134 1.134 0 00-.28.015.417.417 0 00-.252.147.544.544 0 00-.098.344c0 .145.031.26.098.345a.418.418 0 00.252.147c.09.02.19.019.28.014l.098-.005c.056-.004.108-.007.16-.007zM29.307 19.4h0l.006.003c.244.105.503.226.781.357.181.085.37.173.57.264-.807.304-1.587.633-2.338.95-.332.14-.659.278-.98.41l-.15.056c-.183.068-.325.12-.43.17-.135.06-.233.125-.29.228-.056.1-.062.22-.06.36 0 .056.003.115.005.181.004.112.01.243.01.41 0 .148.003.27.019.364.015.091.045.182.121.235.078.055.174.047.262.024.09-.024.2-.073.33-.138a201.27 201.27 0 002.754-1.214h0c.92-.41 1.838-.82 2.756-1.213h0l.005-.003a1.19 1.19 0 00.357-.243.62.62 0 00.158-.437c0-.207-.035-.39-.12-.541a.77.77 0 00-.4-.338c-.722-.328-1.44-.655-2.158-1.046h0l-.003-.002c-.59-.295-1.163-.59-1.738-.885h0c-.574-.296-1.149-.591-1.74-.887h0l-.007-.003a1.434 1.434 0 00-.227-.075.33.33 0 00-.204.01.254.254 0 00-.135.164.847.847 0 00-.03.256v.713a.632.632 0 00.063.465c.08.13.216.223.389.293.395.197.805.378 1.213.557h.002c.41.181.818.36 1.21.556zm-12.581 1.986h0a97.688 97.688 0 00-3.388-1.421c1.158-.494 2.21-.997 3.261-1.615.258-.113.459-.2.61-.285a.893.893 0 00.34-.292.855.855 0 00.11-.43 7.055 7.055 0 00-.02-.657l-.001-.003c0-.1-.009-.186-.03-.254a.254.254 0 00-.136-.162.331.331 0 00-.204-.011 1.443 1.443 0 00-.227.075h0l-.007.003c-.609.304-1.224.616-1.844.93a229.187 229.187 0 01-3.799 1.891h0-.001c-.215.108-.334.24-.393.4-.056.148-.056.311-.056.468v.01c0 .178.036.315.118.428a.87.87 0 00.331.252h0l.002.001c.493.23.97.444 1.445.657h0c.476.213.95.426 1.442.655.92.46 1.84.855 2.757 1.248l.028.014.08.04a.484.484 0 00.145.044.233.233 0 00.175-.046.328.328 0 00.105-.184c.103-.378.088-.73-.055-1.035-.144-.305-.41-.55-.788-.721zm7.403-4.599h0v-.002l.095-.255c.04-.11.075-.203.1-.28a.9.9 0 00.042-.184.28.28 0 00-.03-.168.258.258 0 00-.136-.11.74.74 0 00-.191-.04c-.145-.015-.35-.015-.622-.015h-.008c-.237 0-.44.033-.604.139-.165.107-.274.278-.344.52l-2.557 6.885-.002.005c-.08.191-.143.343-.177.459-.033.11-.053.226.008.317.061.092.176.119.29.13.12.014.285.014.492.014h.012c.192 0 .344 0 .463-.011a.677.677 0 00.307-.087.578.578 0 00.199-.232c.052-.097.103-.225.166-.384l.003-.006h0v-.001c.427-1.116.837-2.232 1.247-3.348h0c.41-1.116.82-2.23 1.247-3.346zM6.381 6.94c.352 0 .657-.123.875-.34.217-.218.34-.523.34-.875 0-.715-.573-1.215-1.215-1.215-.352 0-.657.123-.874.34a1.214 1.214 0 00-.341.875c0 .642.5 1.216 1.215 1.216zm4.497-1.215c0-.642-.5-1.215-1.216-1.215-.641 0-1.215.5-1.215 1.215 0 .642.5 1.216 1.216 1.216.642 0 1.215-.5 1.215-1.216zm.852 0h0v.01c.07.702.569 1.206 1.281 1.206.353 0 .659-.124.876-.35.218-.227.34-.549.34-.931h0v-.01c-.07-.702-.569-1.206-1.281-1.206-.72 0-1.216.577-1.216 1.281z" fill="#fff" stroke="#fff" stroke-width=".2"/></svg>