<svg width="36" height="43" fill="none" xmlns="http://www.w3.org/2000/svg"><path d="M19.015.045c.805.127 1.611.212 2.396.403 5.513 1.315 9.245 4.665 11.323 9.903.106.275.233.53.382.763a4.07 4.07 0 01.615 2.163v5.09c0 2.29-1.527 3.943-3.817 4.07-.976.064-1.951 0-3.011 0 1.442-1.993 2.099-4.177 2.099-6.552s-.636-4.559-2.1-6.573h2.524c-1.696-3.478-5.768-6.51-10.75-6.786-6.108-.34-10.582 3.16-12.427 6.764h2.46c-2.735 4.39-2.735 8.737 0 13.147h-.445c-.89 0-1.76.022-2.65-.042-1.994-.148-3.52-1.548-3.606-3.541-.106-2.057-.021-4.114 0-6.15 0-.339.127-.7.276-1.039.488-1.081.954-2.163 1.527-3.202C6.355 3.713 10.34.978 15.664.173c.34-.043.679-.107 1.018-.15.785.022 1.548.022 2.333.022z" fill="#fff"/><path fill-rule="evenodd" clip-rule="evenodd" d="M20.738 26.806a28.148 28.148 0 00-3.51-.248c-.18.029-.354.038-.479.041-.477.08-.891.136-1.269.187-.744.101-1.346.183-2.009.384-5.711 1.766-9.303 5.525-11.03 11.27-.157.546-.175.837-.132 1.047.123.536.504.904 1.268.904h23.749c.428 0 .85.002 1.267.003h.003c1.233.004 2.432.008 3.641-.023h.011c.83-.017 1.314-.615 1.122-1.46l-.002-.009c-.485-2.184-1.438-4.19-2.82-6.009l-.001-.002c-2.51-3.308-5.74-5.37-9.81-6.085zm-3.183-4.129l.445.145v-.907a3.125 3.125 0 01-.142-.19c-.53-.769-.67-1.7-.483-2.563.153-.738.547-1.45 1.253-1.943.665-.464 1.411-.597 2.047-.599 1.284-.016 2.556-.02 3.835-.011.008-.053.014-.1.017-.141v-.005c.382-4.641-4.182-8.756-9.235-6.774l-.008.003c-2.359.915-4.076 3.369-4.109 5.92-.018 1.546.317 2.773.914 3.747.595.972 1.529 1.817 2.911 2.483.468.222.887.342 1.433.498.32.09.682.194 1.122.337zm5.705 2.677c3.592 1.093 6.54 3.244 8.88 6.329 1.548 2.035 2.63 4.304 3.18 6.785.467 2.057-.911 3.86-3.032 3.902-1.24.032-2.48.028-3.72.024h-.001l-1.24-.003H3.576c-1.633 0-2.884-.954-3.223-2.48-.148-.7-.021-1.38.17-2.037 1.908-6.361 5.98-10.644 12.362-12.616h.002a8.91 8.91 0 01.544-.147l.008-.002c.641-.15 1.3-.242 1.959-.333.394-.054.787-.109 1.177-.176.127 0 .254 0 .36-.02-.119-.04-.239-.077-.36-.113l-.025-.008c-.16-.047-.32-.094-.483-.14-.652-.189-1.317-.38-1.93-.673a10.97 10.97 0 01-.967-.524c-2.702-1.652-4.034-4.199-3.996-7.534.043-3.371 2.27-6.552 5.386-7.76 6.595-2.588 12.447 2.862 11.96 8.8a7.08 7.08 0 01-.168.953 11.24 11.24 0 00-.13.637c-.042.318-.211.402-.53.402-1.675-.02-3.328-.02-5.004 0-.763 0-1.23.319-1.357.955-.17.763.276 1.442 1.06 1.505.486.046.982.037 1.474.028l.175-.003.408-.003h2.333a8.563 8.563 0 01-2.077 2l-.032.021a8.307 8.307 0 01-1.418.759l-.019.008-.003.001c-.765.317-1.571.525-2.388.646.296.042.593.078.89.113.445.054.89.107 1.336.184a18.559 18.559 0 012.189.52z" fill="#fff"/></svg>