<svg width="46" height="46" fill="none" xmlns="http://www.w3.org/2000/svg"><path d="M33.5 39.333a5.833 5.833 0 100-11.666 5.833 5.833 0 000 11.666zM18.333 6.667L23 2l-4.667 4.667zM12.5 18.333a5.833 5.833 0 100-11.666 5.833 5.833 0 000 11.666zm1.167 14l18.666-18.666-18.666 18.666zM7.833 44a5.833 5.833 0 100-11.667 5.833 5.833 0 000 11.667zm30.334-30.333a5.833 5.833 0 100-11.667 5.833 5.833 0 000 11.667zM23 44l4.667-4.667L23 44z" fill="#282828"/><path d="M23 44l4.667-4.667m5.833 0a5.833 5.833 0 100-11.666 5.833 5.833 0 000 11.666v0zM18.333 6.667L23 2l-4.667 4.667zM12.5 18.333a5.833 5.833 0 100-11.666 5.833 5.833 0 000 11.666v0zm1.167 14l18.666-18.666-18.666 18.666zM7.833 44a5.833 5.833 0 100-11.667 5.833 5.833 0 000 11.667v0zm30.334-30.333a5.833 5.833 0 100-11.667 5.833 5.833 0 000 11.667z" stroke="#fff" stroke-width="3" stroke-linecap="round" stroke-linejoin="round"/></svg>