<svg width="43" height="43" fill="none" xmlns="http://www.w3.org/2000/svg"><path d="M17.763.26c.978.847 1.826 1.63 2.804 2.413 2.61 2.087 5.48 3.718 8.741 4.435 1.826.392 3.587.326 5.48-.065v10.762h-2.023V9.913c-5.87-.13-10.828-2.283-15.002-6.458-4.044 4.045-8.74 6.523-14.546 6.588-.065.13-.065.196-.065.261 0 2.87-.065 5.74 0 8.61.13 3.784 1.63 7.11 4.11 9.98 2.478 2.87 5.152 5.48 8.022 7.958 1.24 1.044 2.348 2.218 3.588 3.392l-1.37 1.76c-.196-.13-.326-.26-.457-.39-3.653-3.523-7.37-6.915-10.893-10.502-3.587-3.588-5.479-8.023-5.61-13.11-.065-3.523 0-6.98 0-10.502v-.588h.262c2.543.979 4.957.522 7.37-.326 2.74-.978 5.153-2.609 7.371-4.5.717-.587 1.5-1.24 2.218-1.827z" fill="#fff"/><path d="M24.938 25.763c-.13-.391-.196-.717-.326-1.109-.196-.717 0-1.239.652-1.63.783-.457 1.63-.914 2.413-1.305.653-.391 1.175-.326 1.762.196l.195.195c1.5 1.37 2.544 1.37 4.044 0 .718-.652 1.175-.717 2.088-.26.717.39 1.435.782 2.152 1.174.653.391.913.913.653 1.696-.849 2.022.847 3.913 2.543 3.848.522 0 .848.26.979.783a9.541 9.541 0 010 4.696c-.13.522-.457.783-1.044.783-2.022.13-3.13 1.826-2.544 3.718.261.913.13 1.37-.717 1.826-.718.392-1.5.848-2.218 1.24-.718.39-1.24.326-1.826-.261l-.066-.066c-1.695-1.63-2.609-1.63-4.37 0-.587.587-1.109.653-1.826.261-.718-.391-1.435-.782-2.153-1.24-.717-.39-.978-.977-.652-1.695.783-1.696-.522-3.848-2.544-3.848-.587 0-.913-.392-.978-.914a10.174 10.174 0 010-4.435c.13-.652.522-.913 1.174-.913 1.435-.066 2.544-1.24 2.609-2.74zm15.915 7.697v-3.587c-3.065-.457-4.24-2.349-3.652-5.675-.653-.326-1.305-.652-1.892-1.11-.391-.26-.652-.195-1.043.131-1.892 1.631-3.523 1.631-5.414 0-.066-.065-.13-.195-.261-.195-.13-.066-.392-.13-.522-.066-.783.392-1.566.848-2.283 1.24v.195c.978 2.48-.783 5.153-3.262 5.414-.13 0-.39.261-.39.457-.066.913-.066 1.761-.066 2.674 0 .392.196.587.587.652 1.761.392 2.935 1.435 3.261 3.262.13.717-.065 1.5-.065 2.348.392.261.979.522 1.5.848.587.391.914.326 1.435-.13 1.827-1.566 3.327-1.566 5.153 0 .196.195.457.39.653.587l2.152-1.175c.326-.13.326-.326.261-.652-.13-.652-.196-1.37-.065-2.022.587-1.891 1.957-2.87 3.913-3.196zM25.85 14.479c.783.717 1.435 1.435 2.022 2.087L17.11 27.329c-2.218-2.218-4.5-4.501-6.784-6.719.652-.652 1.37-1.37 2.088-2.022 1.5 1.5 3.065 3.131 4.696 4.697 2.935-3.001 5.87-5.871 8.74-8.806z" fill="#fff"/><path d="M35.245 31.699a3.716 3.716 0 01-3.718 3.718c-2.023 0-3.718-1.696-3.718-3.718 0-2.022 1.695-3.718 3.718-3.718 2.022-.065 3.718 1.63 3.718 3.718zm-1.305 0c0-1.37-1.109-2.479-2.413-2.479-1.305 0-2.414 1.044-2.414 2.348-.065 1.37 1.044 2.544 2.414 2.544A2.408 2.408 0 0033.94 31.7z" fill="#fff"/></svg>