<svg width="41" height="43" fill="none" xmlns="http://www.w3.org/2000/svg"><path d="M24.873 37.02v1.25c0 .982-.714 1.786-1.652 1.92l-.313 1.117c-.178.58-.714 1.027-1.34 1.027h-2.991c-.626 0-1.206-.447-1.34-1.028l-.313-1.116a1.929 1.929 0 01-1.652-1.92v-1.25a1.2 1.2 0 011.206-1.206h7.234a1.22 1.22 0 011.161 1.206zM18.98 1.16v4.108c0 .625.49 1.161 1.16 1.161.626 0 1.162-.49 1.162-1.16V1.16A1.155 1.155 0 0020.14 0c-.625 0-1.161.536-1.161 1.161zM6.386 20.184c0-.625-.491-1.16-1.161-1.16H1.16c-.625 0-1.161.49-1.161 1.16 0 .625.491 1.161 1.161 1.161h4.108c.58-.044 1.117-.535 1.117-1.16zm32.732-1.16H35.01c-.625 0-1.161.49-1.161 1.16 0 .626.491 1.162 1.161 1.162h4.108c.625 0 1.161-.492 1.161-1.162.045-.67-.446-1.16-1.16-1.16zM8.752 29.873L5.85 32.778c-.491.491-.491 1.206 0 1.652.223.224.491.358.804.358.312 0 .58-.134.804-.358l2.902-2.902c.491-.491.491-1.206 0-1.652-.402-.447-1.116-.447-1.608 0zm24.025-23.98l-2.902 2.903c-.492.491-.492 1.206 0 1.652.268.224.535.358.848.358.313 0 .58-.134.804-.358l2.902-2.902c.492-.491.492-1.206 0-1.652-.49-.447-1.205-.492-1.652 0zm-25.32 0c-.49-.49-1.205-.49-1.652 0-.446.492-.491 1.206 0 1.653l2.948 2.902c.223.224.49.358.803.358.313 0 .58-.134.804-.358.491-.49.491-1.205 0-1.652L7.458 5.895zm24.07 23.98c-.491-.49-1.206-.49-1.652 0-.492.492-.492 1.206 0 1.653l2.902 2.902c.223.224.491.358.804.358.313 0 .58-.134.804-.358.491-.49.491-1.205 0-1.652l-2.858-2.902zm-.58-9.6c0 2.768-1.117 5.537-3.037 7.502-1.117 1.16-1.831 2.59-2.054 4.153-.224 1.34-1.385 2.366-2.77 2.366h-5.983a2.787 2.787 0 01-2.769-2.366c-.223-1.563-.982-3.037-2.054-4.153a10.843 10.843 0 01-3.036-7.368c-.045-5.983 4.778-10.895 10.716-10.94h.09c5.983.045 10.895 4.867 10.895 10.807zm-2.412 0c0-4.645-3.796-8.44-8.485-8.44h-.044c-4.645.09-8.396 3.885-8.35 8.574.044 2.143.892 4.153 2.366 5.76a10.002 10.002 0 012.68 5.448c.044.224.222.357.401.357h5.984c.223 0 .402-.178.402-.357a9.915 9.915 0 012.724-5.448c1.473-1.563 2.322-3.706 2.322-5.894zm-1.965.044a6.48 6.48 0 01-6.475 6.475 6.48 6.48 0 01-6.475-6.475 6.48 6.48 0 016.475-6.475 6.48 6.48 0 016.475 6.475zM23.4 18.89l-1.25-1.25-2.903 2.858-1.206-1.206-1.25 1.25 1.205 1.206 1.25 1.25 1.251-1.25 2.902-2.858z" fill="#4385F5"/></svg>