<svg width="42" height="39" fill="none" xmlns="http://www.w3.org/2000/svg"><path d="M41.922 26.174H39.44V20.47c-4.623 4.601-9.182 9.118-13.72 13.634l-9.945-9.945A8891.62 8891.62 0 001.654 38.197C1.06 37.603.488 37.052 0 36.543a10429.92 10429.92 0 0115.65-15.882l10.029 10.03 11.705-11.96h-5.47v-2.502h10.008v9.945z" fill="#4385F5"/><path d="M21.161 22.64h4.032v-2.328h-.024c2.976-.504 5.424-2.16 5.424-5.304 0-3.864-3.48-5.208-6.816-5.568-1.656-.168-2.784-.336-2.784-1.488 0-.888 1.128-1.248 2.28-1.248 1.464 0 2.784.288 3.936 1.152l2.352-3c-1.32-1.032-2.736-1.608-4.368-1.848V.872h-4.032v2.184c-2.712.504-4.92 2.064-4.92 4.896 0 4.176 3.168 5.112 6.84 5.448 1.848.168 2.808.696 2.808 1.536 0 .936-1.08 1.488-2.64 1.488-1.416 0-3.264-.288-4.92-1.896l-2.616 3c1.752 1.872 3.432 2.616 5.448 2.856v2.256z" fill="#4385F5"/></svg>