<svg width="43" height="33" fill="none" xmlns="http://www.w3.org/2000/svg"><path d="M13.159 20.589c-2.891.215-5.738-2.028-6.601-5.264-.734-2.631.302-5.479 2.718-7.118 1.941-1.294 4.098-2.07 6.17-3.063C18.982 3.46 22.52 1.822 26.057.139c.518-.258.82-.172 1.035.389.302.82.734 1.596 1.079 2.373.388.862.345.949-.518 1.38l-14.625 6.86c-.13.086-.302.129-.431.215-1.51.777-1.985 2.114-1.338 3.667.69 1.597 1.985 2.2 3.624 1.597.561-.216 1.079-.475 1.596-.734.475-.215.777-.172.993.345.302.69.647 1.38.992 2.071.173.345.216.604-.216.777-1.64.733-3.235 1.682-5.09 1.51zM3.28 15.325c1.855 0 3.235 1.38 3.235 3.193 0 1.812-1.466 3.192-3.278 3.192S-.043 20.243 0 18.475c.043-1.812 1.424-3.15 3.279-3.15z" fill="#4385F5"/><path d="M29.036 10.838c2.89-.301 5.737 1.942 6.687 5.134.776 2.632-.173 5.48-2.589 7.205-1.898 1.338-4.055 2.157-6.126 3.193-3.495 1.768-8.024 4.012-11.519 5.78-.518.26-.82.216-1.035-.345-.346-.82-.734-1.596-1.122-2.372-.432-.863-.345-.95.474-1.38 4.832-2.374 10.7-5.307 15.532-7.68.129-.086.302-.13.431-.216 1.51-.82 1.941-2.157 1.251-3.667-.733-1.596-2.027-2.157-3.667-1.51-.56.216-3.84 1.812-4.357 2.07-.475.217-.777.217-.992-.344-.303-.69-.69-1.38-1.036-2.071-.172-.345-.216-.604.173-.777 1.682-.862 6.04-3.149 7.895-3.02zm9.966 5.092c-1.855.043-3.278-1.338-3.278-3.15-.043-1.812 1.38-3.236 3.192-3.279 1.812-.043 3.322 1.424 3.279 3.15.043 1.898-1.337 3.235-3.193 3.278z" fill="#4385F5"/></svg>