<svg width="27" height="26" fill="none" xmlns="http://www.w3.org/2000/svg"><path d="M20.058 25.86H7.426c-3.549 0-6.458-2.91-6.458-6.458V6.699C.968 3.15 3.878.24 7.426.24h12.632c3.548 0 6.458 2.91 6.458 6.458V19.33c.07 3.619-2.84 6.529-6.458 6.529z" fill="#282828"/><path d="M20.767 8.827c-.425.213-.922.284-1.419.426.213-.07.568-.426.71-.639.213-.283.355-.567.497-.851v-.071h-.072a6.507 6.507 0 01-1.632.639h-.142l-.142-.142c-.212-.213-.496-.355-.78-.497a3.315 3.315 0 00-1.207-.213c-.425 0-.78.142-1.135.355s-.71.426-.923.78c-.284.355-.425.71-.567 1.136a3.44 3.44 0 000 1.206c0 .071 0 .071-.071.071-2.271-.354-4.187-1.135-5.678-2.91-.07-.07-.07-.07-.142 0-.638.994-.354 2.626.497 3.407.142.071.213.213.355.284a3.81 3.81 0 01-1.064-.284c-.071-.07-.071 0-.071.071v.355c.142.993.851 1.987 1.774 2.342.142.07.213.07.355.142-.213.07-.426.07-1.065 0-.07 0-.142 0-.07.07.496 1.278 1.49 1.704 2.27 1.917.071 0 .213 0 .284.07-.284.355-1.136.71-1.561.852-.71.284-1.562.355-2.342.284h-.213s0 .071.07.071c.143.071.356.213.498.284.496.284.993.497 1.56.639 2.84.78 5.962.213 8.091-1.916 1.632-1.633 2.27-3.903 2.27-6.174 0-.071.072-.142.143-.213a8.58 8.58 0 001.135-1.136c-.142-.284-.142-.355-.213-.355.071 0 .071 0 0 0 .071-.07.071-.07 0 0z" fill="#F0EEEE"/></svg>